<?xml version="1.0" encoding="utf-8"?>
<!-- Generator: Adobe Illustrator 25.4.1, SVG Export Plug-In . SVG Version: 6.00 Build 0)  -->
<svg version="1.1" id="layer-1" xmlns="http://www.w3.org/2000/svg" xmlns:xlink="http://www.w3.org/1999/xlink" x="0px"
	 y="0px" viewBox="0 0 1280 1024" style="enable-background:new 0 0 1280 1024;" xml:space="preserve">
<style type="text/css">
	.st0{opacity:0.8;}
	.st1{opacity:0.8;fill:#C7B299;}
</style>
<g class="st0">
	<path class="st1" d="M1281.78,313.39c-45.01,36.81-86.6,27.52-138.46,15.05c-20.74-4.99-41.87-9.02-63.29-6.95
		c-29.05,2.81-51.37,19.71-78.75,27.37c-57.44,16.08-121.35,3.86-178.6-6.8c-60.45-11.25-120.48-26.65-182.17-28.67
		c-97.95-3.21-189.93-39.51-287.2-46.83c-120.06-9.03-234.84,53.15-354.07,16.26c0-140.12,0-280.25,0-420.37
		c427.52,0,855.03,0,1282.55,0C1281.78,12.76,1281.78,163.08,1281.78,313.39z"/>
</g>
</svg>
